<svg width="149" height="80" viewBox="0 0 149 80" fill="none" xmlns="http://www.w3.org/2000/svg">
<path d="M4.14062 45.6367H13.8477V49H0.367188V29.3672H4.14062V45.6367ZM31.4625 29.3672V49H17.982V29.3672H31.4625ZM27.9215 32.7305H21.7555V45.6367H27.9215V32.7305ZM49.0773 29.3672V49H35.5969V29.3672H49.0773ZM45.5363 32.7305H39.3703V45.6367H45.5363V32.7305ZM58.3113 32.7305H53.2117V29.3672H66.6922V32.7305H62.0848V49H58.3113V32.7305ZM84.307 29.3672V36.8047L82.6527 39.252L84.307 41.7129V49H70.8266V29.3672H84.307ZM74.6 40.7832V45.6367H80.766V40.7832H74.6ZM74.6 32.7305V37.584H80.766V32.7305H74.6ZM101.922 29.3672V49H88.4414V29.3672H101.922ZM98.3809 32.7305H92.2148V45.6367H98.3809V32.7305Z" fill="#6C63FF"/>
<g clip-path="url(#clip0_131_336)">
<path d="M113.849 42.0919H109.607L108.192 43.5061C108.005 43.6937 107.9 43.948 107.9 44.2132C107.9 44.4784 108.005 44.7328 108.192 44.9203L111.021 47.7488C111.208 47.9363 111.463 48.0416 111.728 48.0416C111.993 48.0416 112.248 47.9363 112.435 47.7488L113.849 46.3345V42.0919ZM118.092 37.8493V33.6066L119.506 32.1924C119.694 32.0049 119.948 31.8995 120.213 31.8995C120.478 31.8995 120.733 32.0049 120.92 32.1924L123.749 35.0208C123.936 35.2084 124.042 35.4627 124.042 35.7279C124.042 35.9932 123.936 36.2475 123.749 36.435L122.335 37.8493H118.092ZM118.092 42.0919V46.3345L119.506 47.7488C119.694 47.9363 119.948 48.0416 120.213 48.0416C120.478 48.0416 120.733 47.9363 120.92 47.7488L123.749 44.9203C123.936 44.7328 124.042 44.4784 124.042 44.2132C124.042 43.948 123.936 43.6937 123.749 43.5061L122.335 42.0919H118.092ZM113.849 37.8493H109.607L108.192 36.435C108.005 36.2475 107.9 35.9932 107.9 35.7279C107.9 35.4627 108.005 35.2084 108.192 35.0208L111.021 32.1924C111.208 32.0049 111.463 31.8995 111.728 31.8995C111.993 31.8995 112.248 32.0049 112.435 32.1924L113.849 33.6066V37.8493Z" stroke="#6C63FF" stroke-width="2.5" stroke-linecap="round" stroke-linejoin="round"/>
</g>
<g clip-path="url(#clip1_131_336)">
<path fill-rule="evenodd" clip-rule="evenodd" d="M88.4141 19.5555H118.798C122.827 19.5555 126.691 21.1561 129.54 24.0052C132.389 26.8542 133.99 30.7183 133.99 34.7475V46.1414C133.99 50.1705 132.389 54.0347 129.54 56.8837C126.691 59.7327 122.827 61.3333 118.798 61.3333H88.4141C84.3849 61.3333 80.5208 59.7327 77.6718 56.8837C74.8227 54.0347 73.2222 50.1705 73.2222 46.1414V34.7475C73.2222 30.7183 74.8227 26.8542 77.6718 24.0052C80.5208 21.1561 84.3849 19.5555 88.4141 19.5555ZM88.4141 23.3535C85.3922 23.3535 82.4941 24.554 80.3574 26.6907C78.2206 28.8275 77.0201 31.7256 77.0201 34.7475V46.1414C77.0201 49.1633 78.2206 52.0614 80.3574 54.1981C82.4941 56.3349 85.3922 57.5353 88.4141 57.5353H118.798C121.82 57.5353 124.718 56.3349 126.855 54.1981C128.991 52.0614 130.192 49.1633 130.192 46.1414V34.7475C130.192 31.7256 128.991 28.8275 126.855 26.6907C124.718 24.554 121.82 23.3535 118.798 23.3535H88.4141Z" fill="#6C63FF"/>
</g>
<defs>
<clipPath id="clip0_131_336">
<rect width="24" height="24" fill="white" transform="translate(99 39.9706) rotate(-45)"/>
</clipPath>
<clipPath id="clip1_131_336">
<rect width="45" height="80" fill="white" transform="translate(104)"/>
</clipPath>
</defs>
</svg>
